<?xml version="1.0" encoding="utf-8"?>
<!-- Generator: Adobe Illustrator 21.1.0, SVG Export Plug-In . SVG Version: 6.00 Build 0)  -->
<svg version="1.1" id="Capa_1" xmlns="http://www.w3.org/2000/svg" xmlns:xlink="http://www.w3.org/1999/xlink" x="0px" y="0px"
	 viewBox="0 0 305 55" style="enable-background:new 0 0 305 55;" xml:space="preserve">
<style type="text/css">
	.st0{fill:#AA1C1E;}
</style>
<g>
	<path class="st0" d="M26.8,44.9c-2.7-2.2-6.4-4.7-10.7-4.7c-4.7,0-9.5,3-9.4,5l-0.6-0.3c-0.7-2.3,2.6-7.8,8.3-9.3
		c1.4-1.7,2.1-4,2.1-7.5v-7.2c0-5.8,5.6-11.5,10.1-11.5c1.5,0,3.9,1,5.4,1.9l-3.5,4.3c-1.2-1.1-2.5-1.9-3.8-2.1v8.8h2.8l-1,4h-1.9
		V36c1.5,0.2,3.4,0.8,5.3,1.4c0.3-0.6,0.7-1.3,0.9-1.9l1.2,0.7l-4.8,8.7L26.8,44.9z M6.9,26.2l-0.1-0.4c0.6-0.9,2.1-3.6,3.6-3.6
		v-2.4c0-2.4,1.2-5,2.9-6.7c-1.3-0.2-2.5-0.6-3.9-0.6c-1.4,0-2.6,1.3-3,2.3l-0.5,0c-0.5-2.9,1.3-6.4,5.3-6.4c3,0,4.9,1.1,7.4,1.1
		c0.9,0,1.7-0.2,2.5-0.6c0.3-0.1,0.5-0.3,0.7-0.4l0.4,0.7c-2.8,1.9-7,5.8-7,11.1v8.9c0,4.7-3.1,6-4.9,7l-0.8-0.3
		c0.9-1.8,0.9-4.1,0.9-7.5v-2L6.9,26.2z M16.8,35.3c0.1,0,0.3,0,0.4,0c2.2,0,4.4,0.1,6.6,0.6v-9.7h-2v1.2C21.7,31.8,19,34,16.8,35.3
		L16.8,35.3z M21.7,13.6v8.6h2v-8.8C23.1,13.4,22.3,13.4,21.7,13.6L21.7,13.6z M32.8,15.8c2.6-1.2,4.9-2.1,7.5-3.6l0.6,1.2L39.5,14
		V36l2.8,1.4l-3.2,4.5h-0.2c-1.5-1-3.8-2.1-5-2.9c0.2-1,0.5-2,0.5-3.2V16.6l-1,0.4L32.8,15.8z M69.5,16.1c-1.9-2.3-5-5.5-9.3-5.5
		c-2.6,0-4.1,0.8-4.1,3.1c0,1.9,1.7,3.6,6.5,4.5l4.8,1L69.5,16.1z M68.4,44.9h-0.6c-2.6-2.3-8.2-4.8-12.2-4.8c-4.5,0-6.7,3-6.7,5
		l-0.6-0.3c-0.8-2.6,1.8-9.9,9.9-9.9c3.8,0,7.8,1.8,13.2,3.3c2.1-2.2,3.1-4.5,3.1-6.3c0-4.6-3-6.3-7.6-7.2l-2-0.4l-0.7,0.9l2.2,0.5
		c4.3,0.8,6.9,2.3,6.9,6c0,2.3-0.9,4-1.9,5.2c0.1-0.3,0.1-0.6,0.1-1c0-2.6-1.8-4.7-7.7-5.9l-2.6-0.6c-2.3,3.1-3.7,4.2-5.4,4.2
		c-1,0-1.4-0.4-1.4-0.8c0-0.5,0.4-0.8,0.9-0.8c0.6,0,0.8,0.7,1.3,0.7c0.9,0,2-1.1,3.9-3.4l-1.8-0.4c-4.5-1-6.7-2.7-6.7-5.5
		c0-1.8,0.7-2.7,1.4-3.1c1,2.3,3.3,3.4,7.8,4.3l2.2,0.5l0.7-1L62,23.8c-6.5-1.4-8.3-3.2-8.3-7.2c0-4.4,3.8-8.1,9.9-8.1
		c3.8,0,6.8,1.2,9.5,3c1-1.5,2-2.1,3.2-2.3c1-0.1,1.5,0.1,1.5,0.6c0.1,0.5-0.2,0.9-0.7,0.9c-0.6,0.1-0.9-0.6-1.4-0.5
		C75,10.2,74.4,11,74,11.4c-2.2,2.9-4.3,5.7-5.8,8c6.4,1.2,10.4,3.3,10.4,9.3C78.6,34.7,69.8,42.2,68.4,44.9L68.4,44.9z M96.3,38
		c-2.1,1-4.6,2.5-6.6,3.7h-0.2c-2.2-1-6.5-2.8-8.8-3.5c0.2-0.7,0.5-1.4,0.5-2.6V22c2.4-1.1,5-2.2,7.2-3.5h0.3
		c2.7,1.1,6.4,2.8,8.1,3.7c-0.1,0.7-0.4,2.4-0.4,3.7V38z M91.3,28.7c0-1,0.2-2.3,0.4-3.1c-1.6-1.1-3.5-2.1-5.4-2.9v12.8l5,2V28.7z
		 M98.3,15.8c2.6-1.2,4.9-2.1,7.5-3.6l0.6,1.2l-1.4,0.7V36l2.8,1.4l-3.2,4.5h-0.2c-1.5-1-3.8-2.1-5-2.9c0.2-1,0.5-2,0.5-3.2V16.6
		l-1,0.4L98.3,15.8z M133.2,37.8c-1.3,0.3-4.7,2.4-6.8,3.8h-0.2c-1.9-0.8-7.3-2.9-9.2-3.2c0.3-0.8,0.5-1.6,0.5-2.7V23.2
		c0.9-0.2,4.1-1.4,5.4-2c-1.9-1.6-4.1-3.1-5-3.8l2.6-5.2c3.3,2.7,10.2,8.2,13.2,9.8c-0.3,0.9-0.5,2.7-0.5,3.8V37.8z M128,28.8
		c0-0.9,0.1-2.5,0.4-3.3l-4.5-4l-1.2,0.7v13.2l5.4,2V28.8z M141.5,31.6v3.8l7.5,1.9l-3.5,4.3h-0.3c-2-1-7.2-2.5-9.1-3.2
		c0.1-0.6,0.5-1.6,0.5-2.7V22.2c2.9-1.1,6.2-2.7,8.1-3.6h0.2c1,0.9,5.2,5.4,6.2,6.6L141.5,31.6z M146,27.2c-1.4-1.7-2.9-3.3-4.5-4.9
		v7.9L146,27.2z"/>
	<path class="st0" d="M185.1,8.5c19.3,5.7,15.4,35.7-4.9,35.7c-12.1,0-19.7-7-19.7-17.3c0-8.5,6.8-16,14-18.3L175,9
		c-2.2,1.4-4.4,4.3-5.8,8.1l15.7-8.5v0L185.1,8.5z M182.7,13.9v27.6C194.4,39.1,194,19.8,182.7,13.9L182.7,13.9z M180.1,41.8
		c0.6,0,1.1-0.1,1.7-0.1V30.1l-10.9,6C173.1,39.7,176.5,41.8,180.1,41.8L180.1,41.8z M167.8,25.1c0,3.7,0.9,7.1,2.4,9.9l2.3-1.2
		l-0.1-1.9V16.8l-3.8,2.1C168.1,20.8,167.8,22.9,167.8,25.1L167.8,25.1z M179.8,12.8l-0.4,0.2v17l2.3-1.2V13.5
		C181.1,13.2,180.5,13,179.8,12.8L179.8,12.8z M231.3,27.8c1,0,2,0,3,0.1l2.2-3.3l-10.6-1l3-5l10.7,1.5l0.6-0.7l0.9,0.6l-5.1,8.1
		c1,0.1,2.1,0.4,3.3,0.7l-1.6,4c-1.3-0.3-2.8-0.6-4.3-0.7l-2.1,3.3c2.7-0.1,6.3,0.7,7.8,1.4l0.7-0.8l0.9,0.9l-3.1,5.3
		c-2.3-1.4-6.5-2.1-9.2-2.1l-1.1,1.7l-1.4-0.9l5.9-9c-0.9,0-1.8,0-2.6,0.1L231.3,27.8z M261.1,37.4l-4.7,4.6
		c-1.3-1.3-2.4-2.6-3.9-3.6l-3.2,3.3l-6.9-3.3v-6.7l4.2-2.1c-2-1.4-3.5-3.5-4.1-5.9l0.1-0.1c2-1.4,5.1-3.6,6.9-5h0.3
		c2.6,1.1,6.5,2.6,8.1,3.7c-0.1,0.6-0.4,2.1-0.4,3.3V36L261.1,37.4z M252.5,30.6v-1.8c0-1,0.2-2.3,0.4-3.1c-1.3-1-4.7-2.7-6-3.2
		l-3,2.1C245.2,27.9,248.5,30.3,252.5,30.6L252.5,30.6z M252.4,37.4l0.1,0.1v-6c-1.8,0-3.6-0.5-5-1.4v5.5L252.4,37.4z M213.6,20.5
		l-2.1,5.1H211c-0.6-1.4-2.9-2.1-4.2-2.3V36l2.2,1.3l-4,4.6c-1.2-1.3-2.3-2.4-3.7-3.6c0.1-0.5,0.5-1.3,0.5-2.6V24l-2.9-1.9l3.7-3.7
		h0.2l4,2.5v1.5l2.4-3.9h0.3C211.1,18.9,212.4,19.8,213.6,20.5L213.6,20.5z M223.2,13.2c-0.7,0.4-1.6,1.8-3,3.4H220l-3.2-2.2
		l-0.8-0.4v-0.2c0.9-0.8,2.3-2.4,3-3.5h0.3l3,2.2l0.9,0.5V13.2z M225.2,37.4l-4.7,4.6c-1.3-1.3-3-2.6-4.5-3.6
		c0.1-0.5,0.5-1.3,0.5-2.6V23.6l-2.2-1.5l4.1-3.7h0.2l4.4,3c-0.5,0.6-1.5,2-1.5,3.1V36L225.2,37.4z M277.6,38.1
		c-2.2,1.2-4.4,2.4-6.6,3.7h-0.2c-1.5-1-7.5-3-8.8-3.5c0.2-1,0.5-1.4,0.5-2.6V16.6l-1,0.4l-0.6-1.2c2.6-1.2,4.9-2.1,7.5-3.6l0.6,1.2
		l-1.4,0.7v9.2l5-3.8c0,0,5.8,2.8,5.8,2.8c-0.1,0.1-0.4,1.5-0.6,3.1V38.1z M272.5,37.5v-8.3c0-1.6-0.1-2.4,0.3-4l-4-2.1l-1.4,1v11.4
		L272.5,37.5z M299,37.4l-4.7,4.6c-1.3-1.3-2.4-2.6-3.9-3.6l-3.2,3.3l-6.9-3.3v-6.7l4.2-2.1c-2-1.4-3.5-3.5-4.1-5.9l0.1-0.1
		c2-1.4,5.1-3.6,6.9-5h0.3c2.6,1.1,6.5,2.6,8.1,3.7c-0.1,0.6-0.4,2.1-0.4,3.3V36L299,37.4z M290.4,30.6v-1.8c0-1,0.2-2.3,0.4-3.1
		c-1.3-1-4.7-2.7-6-3.2l-3,2.1C283.1,27.9,286.5,30.3,290.4,30.6L290.4,30.6z M290.3,37.4l0.1,0.1v-6c-1.8,0-3.6-0.5-5-1.4v5.5
		L290.3,37.4z"/>
</g>
</svg>
