<?xml version="1.0" encoding="utf-8"?>
<!-- Generator: Adobe Illustrator 21.1.0, SVG Export Plug-In . SVG Version: 6.00 Build 0)  -->
<svg version="1.1" id="Capa_1" xmlns="http://www.w3.org/2000/svg" xmlns:xlink="http://www.w3.org/1999/xlink" x="0px" y="0px"
	 viewBox="0 0 64 55" style="enable-background:new 0 0 64 55;" xml:space="preserve">
<style type="text/css">
	.st0{fill:none;stroke:#797979;stroke-miterlimit:10;}
	.st1{fill:none;stroke:#DFDFDF;stroke-width:2.8346;stroke-miterlimit:10;}
	.st2{fill:#353535;}
</style>
<polyline class="st0" points="32,41.4 38.7,48.1 45.4,41.4 "/>
<line class="st1" x1="12.9" y1="0" x2="12.9" y2="55"/>
<path class="st2" d="M54.9,18.5c-0.6-1.9-2.2-1.1-3-0.9c-0.7,0.2-1.6,0.3-1.7-0.4c-0.2-0.7,0-1,1-1.4c1-0.4,1-0.8,1.2-1.2
	c0.1-0.4-0.1-1.3-0.5-1.2c-0.3,0.1-0.2,0.8-0.6,0.8c-0.4,0-1.2-0.3-1.6-0.3c-1.1,0-1.2-0.5-1.2-0.8c0.3-0.2,0.4-0.8,0.4-1.7
	c0-0.9,0.1-1.3,0.2-1.6c0.3,0.6,1.2,1.2,1.8,1.2c0.6,0,1.1-0.3,0.9-0.5c-0.3-0.1-0.8-0.4-1.1-0.9c-0.6-1.7-1.3-1.7-1.7-1.8
	c-0.4,0-1.5,0-1.9,1.5c-0.4,1.5-1.2,1.6-1.8,1.3c-0.6-0.3-0.2-2.1,0-2.8c0.1-0.7-1.3-1.4-1.4-1.2c-0.1,0.2,0.5,0.7,0.2,1
	c-1,0.4-2,1.5-2.1,1.5c-0.1-0.1-0.4,0.1-0.8,0c0.4-0.6-0.9-1.9-1.4-2.3c-0.4-0.3-0.4-0.8-0.3-0.8c0.1,0,0.5,0.2,0.8,0.2
	c1.8,0,1.6-1.6,1.6-1.6c-1.8,0.5-1.4-0.3-2.8-0.3c-1.4,0-1.7,1.1-1.7,1.6c0,0.6,0.3,1.3,0.5,2.1c0.2,0.7-0.3,1.2-0.6,1.2
	c-0.2,0-0.6,0.4-1.2-0.9C35.9,7.2,35.2,7,35,7c-0.2,0-1.1,0.1-1.2,0.6c1.5,0,0.8,1,0.7,1.3c-0.1,0.2,0,1,0,1.3s-0.3,0.6-0.7,0.6
	c-0.4,0-0.9-0.4-2-0.3c-1.4,0.1-1.5-0.4-1.5-0.4s0.9-0.8,1.1-1.5C31.6,7.5,31,7.5,31,7.5c-0.1,1.1-2,0.8-2.7,2.5
	c-0.4,1.1,0.7,2,1.4,2.3c0.7,0.3,1.7,0.6,1.4,1.6c-0.3,1.1-1.5,0-2.7,0c-1.3,0-1.5,1.7-1.3,1.7c0.2,0.1,0.5-0.6,0.7-0.5
	c0.3,0.1,0.7,0.5,0.9,0.9c0.1,0.4,0.9,1.3,0.9,1.3s0,0.3-0.1,0.7c-0.9-0.1-2.3,1.7-2.7,1.8c-0.9,0.2-0.5-0.3-0.4-0.9
	c0.1-0.6-1-1.7-1.6-1.4c1.1,0.9-0.3,2.1-0.3,2.9c0,0.7,0.8,1.5,1.4,1.6c0.6,0.1,1.8-0.6,2.2-0.6c0.4,0,1.3-0.1,1.5,0.6
	c0.2,0.7-0.7,1.1-0.7,1.1s-1.3,0.7-1.6,1.2c-0.3,0.5,0.3,1.5,0.6,1.6c-0.1-0.2,0.2-0.8,0.4-0.8c0.2,0,1.6,0.4,2,0.4
	c0.4,0,1.4,0.2,1.1,0.6c-0.4,0.4-0.4,0.6-0.5,0.9c-0.1,0.3,0,1.8,0,1.9c0,0.1,0,0.7-0.4,0.7c-0.6-1.5-1.7-1.4-2.6-1
	c0.7,0,1.2,1,1.4,1.6c0.1,0.6,0.5,1.1,1.5,1.3c1,0.2,1.5-0.7,2-1.6c0.5-0.9,0.7-1.6,1.6-1.2c0.8,0.4,0.1,1.6,0,2.5
	c-0.2,1.1,1.2,1.7,1.4,1.5c-0.7-0.8,0.2-1.3,0.4-1.4c0.3-0.1,0.9-0.7,1.1-0.9c0.2-0.3,0.8-0.2,1.2-0.1c0.2,1.2,1.8,2.3,1.8,2.5
	c0,0.1-0.1,0.6-0.1,0.6s-0.3-0.2-1.1-0.2c-0.8,0-1.5,1.1-1.3,1.6c0.2-0.4,1-0.3,1.4-0.2c0.9,0.5,1.7,0.6,2.6,0c0.9-0.6,0.3-2.1,0-3
	c-0.2-0.8,0-1.5,0.2-1.5c0.2-0.1,1.1-0.3,1.5,0.8c0.4,1.1,0.9,1.2,1.5,1.4c0.6,0.1,1.1-0.2,1-0.5c0-0.2-0.5,0-0.7-0.5
	c-0.1-0.3,0.1-1,0.1-1.4c0-0.9,0.3-1.4,0.6-1.4c0.3,0,1.1,0.4,1.9,0.3c0.8,0,1.7,0.2,1.7,0.4c0,0.2-0.7,0.2-1.1,0.8
	c-0.4,0.6,0.1,2.2,0.2,1.8c0.5-0.9,1.2-1.2,1.5-1.3c0.3-0.1,1-1,1.2-1.3c0.1-0.2-0.1-1.5-1.4-2c-1.4-0.6-1.5-1-1.5-1.4
	c0-0.4,0.2-0.7,0.7-0.7c0.5,0,1.5,0.4,1.9,0.4c0.8,0,1.7-1.2,1.3-1.7c-1,0.9-1.5-0.6-1.7-0.9c-0.2-0.3-0.7-0.6-0.7-1
	c0-0.4,0.6-0.6,0.9-0.7c0.3-0.1,0.7-0.6,1.2-1.1c0.4-0.5,1.1-0.5,1.1-0.5s-0.3,0.7-0.2,1.2c0.1,1.4,1.5,1.3,1.5,1.3
	s-0.1-0.4-0.2-0.9C54.4,20.4,55.2,19.3,54.9,18.5 M39.9,28.5c-5,0-9-4-9-9c0-5,4-9,9-9c5,0,9,4,9,9C48.9,24.4,44.9,28.5,39.9,28.5"
	/>
<g>
	<path class="st2" d="M40,27.7c-0.1,0-0.2,0-0.2,0c-0.1,0-0.3,0-0.4,0c-2-0.2-3.9-1.1-5.3-2.6c-1.4-1.5-2.2-3.5-2.2-5.5
		c0-4.5,3.6-8.1,8.1-8.1c4.5,0,8.1,3.6,8.1,8.1c0,4-2.8,7.4-6.8,8c-0.2,0-0.4,0.1-0.6,0.1C40.5,27.7,40.2,27.7,40,27.7z M40,11.6
		c-4.4,0-8,3.6-8,8c0,2,0.8,4,2.1,5.4c1.4,1.5,3.2,2.4,5.2,2.5c0.1,0,0.3,0,0.4,0c0.3,0,0.7,0,1,0c0.2,0,0.4,0,0.6-0.1
		c3.9-0.6,6.7-4,6.7-7.9C48,15.1,44.4,11.6,40,11.6z"/>
</g>
<path class="st2" d="M40,15.5c0.4,0,1,0.2,1.7,0.2c0.7,0,1.6-0.1,2.2-0.1c0.5,0,1.7,0.1,1.7,1.5c0,1-0.9,1.9-2.1,1.9
	s-1.5-0.3-1.5-0.3s-0.2-0.1,1.7-0.1c0.5,0,1.6-0.7,1.6-1.5c0-0.6-1.3-1-1.9-1c-0.6,0-2.4,0.4-2.4,1.5c0,0.7,1.2,1.6,1.2,2.4
	c0,0.7-0.5,0.6-0.7,0.6c-0.2,0-0.5-0.1-0.6-0.1c-0.3,0-0.4,0.3-0.7,0.3c-0.6,0-0.6-0.3-1-0.3c-0.4,0-0.4,0.2-0.7,0.2
	c-0.3,0-0.6-0.5-0.6-0.8c0-0.6,1.2-1.6,1.2-2.1c0-0.6-0.8-1.4-2.2-1.4c-1.4,0-1.9,0.9-1.9,1.3c0,0.4,0.4,1.2,1.9,1.2
	c0.7,0,1.3-0.3,1.5-0.1c0.1,0.1-0.9,0.4-1.5,0.4s-2.1-0.3-2.1-1.5c0-1.2,0.6-1.8,1.8-1.8c1.2,0,1.4,0.1,1.7,0.1
	C38.7,15.9,39.3,15.5,40,15.5"/>
<path class="st2" d="M43.2,16.4c-1,0-2.2,0.6-2.2,1.2c0,0.6,0.9,0.9,2.2,0.9c1.3,0,1.7-0.8,1.7-1.2C45,16.7,43.9,16.4,43.2,16.4
	 M43.2,18.3c-1.1,0-1.9-0.3-1.9-0.7c0-0.4,0.9-1,1.9-1c0.4,0,1.6,0.2,1.6,0.6C44.8,17.7,44.3,18.3,43.2,18.3"/>
<path class="st2" d="M43.2,16.7c-1.2,0-1.8,0.5-1.8,0.8c0,0.3,0.9,0.5,1.8,0.5c0.9,0,1.4-0.4,1.4-0.8C44.6,16.9,43.6,16.7,43.2,16.7
	 M43.2,17.9c-0.7,0-1.4-0.2-1.4-0.4c0-0.2,0.2-0.6,1.4-0.6c0.5,0,1.2,0.2,1.2,0.4C44.4,17.6,43.9,17.9,43.2,17.9"/>
<path class="st2" d="M43.1,17.1c0.5,0,1,0.2,1,0.3c0,0.1-0.4,0.3-1,0.3c-0.6,0-1-0.2-1-0.3C42.1,17.3,42.6,17.1,43.1,17.1"/>
<path class="st2" d="M35,17.4c0,0.5,0.5,1.2,1.7,1.2c1.3,0,2.2-0.2,2.2-0.9c0-0.6-1.2-1.2-2.2-1.2C36.1,16.5,35,16.9,35,17.4
	 M35.2,17.4c0-0.5,1.2-0.6,1.6-0.6c1,0,1.9,0.6,1.9,1c0,0.4-0.8,0.7-1.9,0.7C35.6,18.4,35.2,17.9,35.2,17.4"/>
<path class="st2" d="M35.3,17.5c0,0.4,0.6,0.8,1.4,0.8c0.9,0,1.8-0.2,1.8-0.5c0-0.3-0.5-0.8-1.8-0.8C36.3,16.9,35.3,17.1,35.3,17.5
	 M35.6,17.5c0-0.3,0.7-0.4,1.2-0.4c1.2,0,1.4,0.4,1.4,0.6c0,0.2-0.8,0.4-1.4,0.4C36.1,18,35.6,17.8,35.6,17.5"/>
<path class="st2" d="M36.9,17.3c-0.5,0-1,0.2-1,0.3c0,0.1,0.4,0.3,1,0.3c0.6,0,1-0.2,1-0.3C37.9,17.4,37.4,17.3,36.9,17.3"/>
<path class="st2" d="M40.6,15.2c0,0,4.2-0.1,4.4,0.1c0.2,0.2,0.2,0.5,0.1,0.5c-0.1,0-0.4-0.3-1.2-0.3c-0.8,0-1.7,0.1-2.1,0.1
	C41.5,15.6,40.6,15.5,40.6,15.2"/>
<path class="st2" d="M39.4,15.3c0,0-4.2-0.1-4.4,0.1c-0.2,0.2-0.2,0.5-0.1,0.5c0.1,0,0.4-0.3,1.2-0.3c0.8,0,1.7,0.1,2.1,0.1
	C38.5,15.7,39.4,15.6,39.4,15.3"/>
<path class="st2" d="M41.8,24.9c0,0-0.4,1.9-0.5,2.4c0,0.1,0,0.1-0.1,0.2c-0.2,0-0.4,0.1-0.6,0.1c0.1-0.5,0.4-2,0.4-2.5
	c0.1-0.6-0.2-0.8-1.1-0.8c-0.9,0-1.1,0.4-1.1,0.9c0,0.4,0.6,2,0.7,2.5c-0.1,0-0.3,0-0.4,0c-0.3-0.6-0.8-1.9-1-2.6
	c-0.3-0.9,0.3-1.3,1.9-1.3C42.6,23.7,41.8,24.9,41.8,24.9"/>
<path class="st2" d="M41.7,20.8c-0.5,0-1.1,0.3-1.8,0.3c-0.7,0-1.2-0.1-1.7-0.1c-0.5,0-2,0.1-2,1.5c0,1.4,1.6,2,1.7,1.8
	c0.1-0.1-0.7-0.5-0.6-0.5c0.1,0,0.4,0.1,0.6,0.1c0.2,0,1.3-0.4,2-0.4c0.7,0,1.5,0.2,1.7,0.3c0.2,0,0.8-0.2,0.9-0.1
	c0.1,0.1-0.8,0.4-0.5,0.6c0.2,0.2,1.7-0.7,1.7-2C43.9,20.8,42.3,20.8,41.7,20.8 M42.3,23.2c-0.5,0-1.7-0.1-2.4-0.1
	c-0.7,0-1.8,0.2-2.2,0.2c-0.4,0-0.8-0.4-0.8-0.8c0-0.4-0.1-1,1.4-1h1.6c1,0,2-0.2,2.4-0.1c0.4,0,1.2,0,1.2,0.8
	C43.5,23,42.9,23.2,42.3,23.2"/>
<path class="st2" d="M40.6,12.8c0.1-0.1,0.2-0.3,0.2-0.5c0-0.4-0.5-0.8-1-0.8c-0.6,0-1,0.3-1,0.8c0,0.2,0.1,0.3,0.2,0.5
	c-0.4,0.2-0.6,0.6-0.6,1c0,0.7,0.6,1.2,1.4,1.2c0.8,0,1.4-0.5,1.4-1.2C41.2,13.4,41,13,40.6,12.8 M40,12.7c0,0,0.1,0,0.1,0
	c-0.1,0.1-0.2,0.2-0.4,0.2c-0.3,0-0.5-0.2-0.5-0.5c0-0.3,0.2-0.5,0.5-0.5c0.1,0,0.3,0.1,0.4,0.2c0,0-0.1,0-0.1,0
	c-0.2,0-0.3,0.1-0.3,0.3C39.7,12.5,39.9,12.7,40,12.7"/>
<path class="st2" d="M41.5,12c0.5,0,0.8,0.2,0.8,0.3c0,0.1-0.6,0.4-0.6,1.2c0,0.8,0.5,1.2,0.5,1.3c0,0.2-0.3,0.2-0.6,0.2
	s-0.5-0.1-0.5-0.2c0-0.1,0.4-0.4,0.4-1.3c0-0.6-0.5-0.7-0.5-1C41,12.2,41,12,41.5,12"/>
<path class="st2" d="M38.2,12c-0.5,0-0.8,0.2-0.8,0.3c0,0.1,0.6,0.4,0.6,1.2c0,0.8-0.5,1.2-0.5,1.3c0,0.2,0.3,0.2,0.6,0.2
	c0.3,0,0.5-0.1,0.5-0.2c0-0.1-0.4-0.4-0.4-1.3c0-0.6,0.5-0.7,0.5-1C38.8,12.2,38.8,12,38.2,12"/>
<path class="st2" d="M43.1,12.4c-0.7,0-1.2,0.5-1.2,1.2c0,0.7,0.5,1.2,1.2,1.2c0.7,0,1.2-0.5,1.2-1.2C44.3,12.9,43.7,12.4,43.1,12.4
	 M43.3,14.1c0.1,0,0.2,0,0.3-0.1c-0.1,0.1-0.3,0.2-0.5,0.2c-0.4,0-0.7-0.3-0.7-0.7c0-0.4,0.3-0.7,0.7-0.7c0.2,0,0.5,0.1,0.6,0.3
	c-0.1-0.1-0.2-0.1-0.4-0.1c-0.3,0-0.5,0.2-0.5,0.5C42.8,13.9,43,14.1,43.3,14.1"/>
<path class="st2" d="M36.7,12.6c-0.7,0-1.2,0.5-1.2,1.2c0,0.7,0.5,1.2,1.2,1.2c0.7,0,1.2-0.5,1.2-1.2C37.9,13.1,37.3,12.6,36.7,12.6
	 M36.9,14.2c0.1,0,0.2,0,0.3-0.1c-0.1,0.1-0.3,0.2-0.5,0.2c-0.4,0-0.7-0.3-0.7-0.7c0-0.4,0.3-0.7,0.7-0.7c0.2,0,0.5,0.1,0.6,0.3
	c-0.1-0.1-0.2-0.1-0.4-0.1c-0.3,0-0.5,0.2-0.5,0.5C36.4,14,36.6,14.2,36.9,14.2"/>
<path class="st2" d="M35.3,13.7l0.2,1.1c0,0.1-0.1,0.2-0.2,0.2l-1.2,0c-0.1,0-0.2-0.1-0.1-0.3c0.2-0.3,0.5-0.7,1-1.1
	C35.2,13.5,35.3,13.6,35.3,13.7"/>
<path class="st2" d="M44.9,13.5c0.3,0.2,0.7,0.6,1,0.9c0.1,0.1,0,0.3-0.1,0.3c-0.4,0-0.9,0-1.2,0c-0.1,0-0.2-0.1-0.2-0.2l0.2-1
	C44.6,13.4,44.8,13.4,44.9,13.5"/>
<path class="st2" d="M40.5,25.7c-0.2,0-0.4,0-0.6,0c-0.2,0-0.3,0.1-0.4,0.2c-0.1,0.4,0.3,0.4,0.6,0.4c0.1,0,0.2,0,0.3,0c0,0,0,0,0,0
	c0,0,0.1,0,0.1,0C41,26.2,40.9,25.7,40.5,25.7"/>
<path class="st2" d="M40.6,26.6c-0.2,0-0.4,0-0.7,0c-0.1,0-0.2,0.1-0.2,0.2c0,0.1,0,0.1,0,0.1c0,0,0.1,0.1,0.1,0.1
	c0.2,0.1,0.4,0.1,0.7,0c0,0,0,0,0.1,0C40.9,26.9,40.9,26.5,40.6,26.6"/>
<path class="st2" d="M40.5,27.3c0-0.1,0-0.1-0.1-0.1c-0.1-0.1-0.2-0.1-0.3,0c0,0,0,0-0.1,0.1c0,0,0,0,0,0c-0.1,0.1,0,0.2,0.1,0.3
	c0.1,0.1,0.3,0.1,0.4-0.1C40.5,27.4,40.6,27.4,40.5,27.3"/>
<path class="st2" d="M40.2,25.2c0-0.2-0.1-0.3-0.3-0.4c0,0-0.1,0-0.1,0c0,0,0,0,0,0c-0.1,0-0.3,0-0.4,0.2c-0.1,0.1-0.1,0.2,0,0.3
	c0,0.1,0.1,0.2,0.2,0.3c0.1,0,0.2,0.1,0.3,0c0,0,0,0,0.1,0c0.1,0,0.1-0.1,0.2-0.1C40.1,25.3,40.2,25.3,40.2,25.2"/>
<path class="st2" d="M41,25c0-0.2-0.3-0.3-0.5-0.2c0,0,0,0,0,0c0,0,0,0-0.1,0c-0.1,0-0.2,0.1-0.2,0.2c0,0.2,0.2,0.4,0.4,0.4
	C40.9,25.5,41,25.3,41,25"/>
<path class="st2" d="M45.9,15.8c-0.1-0.3-0.4-0.1-0.4,0.1c0.2,1,0.4,2,0.4,3c0,0.3,0.4,0.3,0.4,0C46.3,17.9,46.1,16.8,45.9,15.8"/>
<path class="st2" d="M46.5,15.8c-0.1-0.2-0.5-0.1-0.4,0.1c0.3,1,0.4,2,0.5,3c0,0.3,0.4,0.3,0.4,0C46.9,17.9,46.8,16.8,46.5,15.8"/>
<path class="st2" d="M47,15.9c-0.1-0.2-0.4,0-0.3,0.2c0.4,0.9,0.6,2,0.5,3c0,0.3,0.4,0.3,0.4,0C47.6,18,47.4,16.9,47,15.9"/>
<path class="st2" d="M34.1,16c0.1-0.3,0.4-0.1,0.4,0.1c-0.2,1-0.4,2-0.4,3c0,0.3-0.4,0.3-0.4,0C33.7,18.1,33.8,17.1,34.1,16"/>
<path class="st2" d="M33.5,16c0.1-0.2,0.5-0.1,0.4,0.1c-0.3,1-0.4,2-0.5,3c0,0.3-0.4,0.3-0.4,0C33.1,18.1,33.2,17,33.5,16"/>
<path class="st2" d="M33,16.1c0.1-0.2,0.4,0,0.3,0.2c-0.4,1-0.6,2-0.5,3c0,0.3-0.4,0.3-0.4,0C32.4,18.2,32.5,17.1,33,16.1"/>
<path class="st2" d="M42.4,19.4c0-0.2,0.9-0.1,1.2-0.2c1-0.2,1.5-0.9,1.7-0.8c0.2,0.1,0.2,0.7,0,0.9c-0.2,0.2-0.8,0.5-0.8,0.9
	c0,0.5-0.1,1-0.1,1.1c0,0.1,0.2,0.3,0.2,0.7c0,0.4-0.2,0.6-0.3,0.6c-0.1,0-0.3-0.1-0.3-0.8c0-0.2-0.2-0.7-0.2-1
	c0-0.3,0.1-0.8-0.3-0.9C43.3,19.8,42.4,20.1,42.4,19.4"/>
<path class="st2" d="M42.4,20.1c0-0.2,0.7-0.1,0.8-0.1c0.1,0,0.5,0,0.5,0.4c0,0.4-0.2,0.5-0.3,0.5c-0.1,0-0.5-0.2-0.7-0.2
	S42.2,20.7,42.4,20.1"/>
<path class="st2" d="M37.1,20.2c0.2-0.1,0.4-0.2,0.6,0c0.2,0.2,0.3,0.6,0.1,0.6c-0.2,0-0.5,0-0.6,0.1c-0.1,0.1-0.6,0.5-0.6,0.1
	c-0.1-0.3,0-0.7,0.2-0.7C37,20.3,37.1,20.2,37.1,20.2"/>
<path class="st2" d="M37.5,19.2c-0.7,0.2-1.9,0.2-2.5-0.4c-0.1-0.1-0.2-0.1-0.3,0c0,0-0.1,0.1-0.1,0.1c-0.1,0.3,0,0.5,0.2,0.7
	c0.1,0.1,0.3,0.2,0.4,0.3c0.1,0.1,0.2,0.1,0.2,0.2c0,0.6,0.4,1.1,0.1,1.6c0,0,0,0,0,0.1c0,0,0,0,0,0.1c0,0.2,0,0.3,0.1,0.5
	c0,0.1,0.1,0.1,0.1,0.2c0.1,0.2,0.4,0,0.3-0.2c0-0.1-0.1-0.2-0.1-0.3c0-0.1,0-0.3,0.1-0.4c0,0,0,0,0-0.1c0.1-0.1,0.2-0.1,0.2-0.3
	c0.1-0.3-0.2-0.5-0.2-0.8c0-0.2,0.1-0.4,0.3-0.5c0.1,0,0.3,0,0.4,0c0.3-0.1,0.5-0.3,0.7-0.5C37.9,19.4,37.8,19.1,37.5,19.2"/>
<path class="st2" d="M35.2,20.1c-0.3-0.4-0.8-0.5-1.2-0.5c-1.3,0-1.6,1.2-1.6,2.3c0,0.3,0.4,0.3,0.4,0c0-0.9,0.1-1.9,1.2-1.9
	c0.4,0,0.8,0.1,1,0.6c0.1,0.4,0.2,0.8,0.2,1.1c0,0.3,0.4,0.3,0.4,0C35.6,21.2,35.6,20.6,35.2,20.1"/>
<path class="st2" d="M33.8,20.2c-1.1,0.2-0.9,1.7-0.7,2.5c0.1,0.2,0.5,0.1,0.4-0.1c-0.2-0.5-0.4-1.9,0.5-2c0.9,0,0.9,1.2,0.8,1.8
	c0,0.3,0.4,0.3,0.4,0C35.2,21.5,35,20,33.8,20.2"/>
<path class="st2" d="M34.5,21.3c-0.1-0.2-0.2-0.4-0.4-0.5c-0.1,0-0.1,0-0.2,0c0,0,0,0,0,0c-0.5,0.3-0.5,0.9-0.4,1.4
	c0.1,0.4,0.5,0.9,0.9,0.5C34.7,22.4,34.8,21.8,34.5,21.3"/>
<path class="st2" d="M47.4,20.2c-0.3-0.4-0.7-0.5-1.2-0.6c-1.1-0.1-1.6,1-1.6,1.9c0,0.3,0.4,0.3,0.4,0c0-0.8,0.3-1.6,1.2-1.5
	c0.4,0,0.7,0.1,0.9,0.6c0.1,0.3,0.1,0.7,0.2,1.1c0,0.3,0.4,0.3,0.4,0C47.7,21.1,47.6,20.6,47.4,20.2"/>
<path class="st2" d="M46.5,20.2c-1-0.3-1.4,0.9-1.4,1.6c0,0.3,0.4,0.3,0.4,0c0-0.3,0.1-0.7,0.2-1c0.2-0.3,0.6-0.4,0.9-0.1
	c0.4,0.4,0.3,1.2,0.2,1.7c-0.1,0.2,0.3,0.3,0.4,0.1C47.4,21.8,47.3,20.5,46.5,20.2"/>
<path class="st2" d="M46.7,21.2c0-0.1,0-0.2-0.1-0.2c0,0,0-0.1-0.1-0.1c0-0.1-0.1-0.1-0.2-0.1c-0.9,0-1.1,1.5-0.4,1.9
	c0.4,0.2,0.6-0.3,0.7-0.6C46.8,21.9,46.8,21.5,46.7,21.2"/>
<path class="st2" d="M44.5,23c-0.5,0.7-1.3,1.2-2.1,1.5c-0.2,0.1,0,0.5,0.2,0.3c0.8-0.4,1.7-0.9,2.2-1.7C45,22.9,44.6,22.7,44.5,23"
	/>
<path class="st2" d="M44.9,23.6c-0.2,0.1-0.3,0.2-0.4,0.4c-0.2,0.2-0.5,0.4-0.7,0.5c-0.6,0.3-1.2,0.6-1.8,0.9
	c-0.1,0-0.1,0.1-0.1,0.2c0,0.1,0.1,0.3,0.2,0.2c0.7-0.1,1.2-0.4,1.7-0.7c0.5-0.3,1-0.7,1.3-1.2C45.2,23.8,45.1,23.6,44.9,23.6"/>
<path class="st2" d="M38,24.7c-0.8-0.3-1.8-0.8-2.2-1.6c-0.1-0.2-0.5,0-0.3,0.2c0.4,0.9,1.5,1.3,2.3,1.7
	C38.1,25.1,38.3,24.8,38,24.7"/>
<path class="st2" d="M38.4,25.7c-0.3-0.4-0.9-0.6-1.3-0.8c-0.6-0.3-1.1-0.7-1.6-1.1c0,0-0.1,0-0.1,0c-0.1,0-0.2,0-0.3,0.1
	c-0.1,0.3,0.1,0.5,0.4,0.7c0.3,0.3,0.7,0.5,1,0.8c0.3,0.2,0.7,0.4,1.1,0.6c0.2,0.1,0.5,0.2,0.7,0C38.4,25.9,38.4,25.8,38.4,25.7"/>
<path class="st2" d="M38.6,26.5c-0.1-0.2-0.3-0.2-0.5-0.2c-0.2,0-0.4-0.2-0.6-0.3c0,0-0.1,0-0.1,0c0,0,0,0,0,0c0,0,0,0,0,0
	c0,0,0,0,0,0c0,0,0,0-0.1,0c-0.1,0-0.1,0-0.1,0.1c-0.2,0.1-0.3,0.4-0.2,0.6c0.1,0.2,0.4,0.2,0.5,0.3c0.2,0.1,0.5,0.2,0.8,0.2
	C38.6,27.2,38.9,26.8,38.6,26.5"/>
<path class="st2" d="M36.9,25.8c-0.1-0.2-0.3-0.3-0.5-0.4c-0.2-0.1-0.4-0.3-0.6-0.2c0,0,0,0,0,0c0,0-0.1,0-0.1,0.1c0,0,0,0,0,0.1
	c0,0,0,0,0,0c0,0,0,0,0,0.1c0,0,0,0,0,0.1c0,0,0,0,0,0c-0.1,0.2-0.1,0.4,0,0.5c0.1,0.1,0.2,0.1,0.3,0.1c0.1,0,0.2,0.1,0.3,0.1
	c0.2,0.1,0.4,0.1,0.6,0C36.9,26.2,37,26,36.9,25.8"/>
<path class="st2" d="M35.2,24.5c-0.1-0.1-0.2-0.1-0.3,0c0,0,0,0-0.1,0c-0.2,0.1-0.6,0.3-0.4,0.6c0.1,0.1,0.2,0.3,0.3,0.3
	c0.1,0.1,0.2,0.2,0.4,0.2c0.3,0,0.5-0.3,0.5-0.5C35.7,24.9,35.4,24.6,35.2,24.5"/>
<path class="st2" d="M43.1,26C43,26,42.9,25.9,42.8,26c0,0-0.1,0-0.1,0c-0.2,0.1-0.5,0.2-0.6,0.3c-0.2,0.1-0.3,0.2-0.2,0.4
	c0,0.2,0.2,0.4,0.4,0.4c0.2,0,0.4-0.1,0.6-0.2c0.2-0.1,0.4-0.2,0.4-0.4C43.3,26.4,43.2,26.2,43.1,26"/>
<path class="st2" d="M44.7,25.5c-0.1-0.1-0.1-0.1-0.2-0.2c0-0.1-0.1-0.1-0.1-0.2c-0.2-0.1-0.3,0-0.4,0.1c-0.2,0.1-0.4,0.3-0.6,0.4
	c0,0,0,0-0.1,0c0,0-0.1,0.1-0.1,0.1c0,0.2,0,0.3,0.1,0.5c0.1,0.1,0.2,0.3,0.4,0.3c0.2,0,0.4-0.1,0.6-0.2c0.2-0.1,0.3-0.2,0.4-0.3
	C44.8,25.8,44.8,25.7,44.7,25.5"/>
<path class="st2" d="M45.3,24.4c-0.3,0-0.5,0.2-0.7,0.4c-0.1,0.1-0.1,0.1-0.1,0.2c0,0,0,0,0,0v0c0,0,0,0.1,0,0.1c0,0,0,0,0,0
	c0.2,0.2,0.4,0.4,0.7,0.2c0.1-0.1,0.2-0.2,0.3-0.3c0.1-0.1,0.2-0.2,0.2-0.3C45.9,24.6,45.6,24.4,45.3,24.4"/>
<path class="st2" d="M34.9,23.1c0-0.1-0.1-0.2-0.2-0.2c-0.1,0-0.1,0-0.1,0c0,0-0.1,0.1-0.1,0.1c-0.1,0.1,0,0.2,0.1,0.3
	c0.1,0,0.1,0.1,0.2,0c0.1,0,0.1,0,0.1-0.1C34.9,23.3,34.9,23.3,34.9,23.1C34.9,23.2,34.9,23.2,34.9,23.1"/>
<path class="st2" d="M35,23.6C34.9,23.6,34.9,23.6,35,23.6c-0.1,0-0.1,0-0.2-0.1c-0.1,0-0.2,0-0.3,0.1c-0.1,0.1-0.1,0.3,0.1,0.4
	c0.2,0.1,0.4,0,0.5-0.1C35.1,23.8,35.1,23.6,35,23.6"/>
<path class="st2" d="M34,23.2c-0.1,0-0.1,0-0.2,0c-0.1,0-0.2,0.1-0.2,0.2c0,0.1,0,0.2,0.1,0.2c0.1,0,0.2,0,0.2,0c0,0,0.1,0,0.1-0.1
	c0,0,0.1-0.1,0.1-0.1C34.1,23.3,34.1,23.2,34,23.2"/>
<path class="st2" d="M34.2,23.8c-0.1-0.2-0.4-0.1-0.6-0.1c-0.1,0-0.1,0.2-0.1,0.3c0,0,0.1,0.1,0.1,0.1c0,0,0.1,0.1,0.1,0.1
	c0.1,0,0.2,0,0.3,0C34.2,24.1,34.2,24,34.2,23.8"/>
<path class="st2" d="M34.5,24.2c-0.3,0-0.3,0.4,0,0.4C34.8,24.6,34.8,24.2,34.5,24.2"/>
<path class="st2" d="M45.7,22.7C45.7,22.7,45.7,22.7,45.7,22.7C45.7,22.7,45.7,22.7,45.7,22.7C45.7,22.7,45.7,22.7,45.7,22.7
	C45.7,22.7,45.7,22.7,45.7,22.7c-0.2,0-0.4,0-0.4,0.1c-0.1,0.1,0,0.2,0,0.3c0,0.1,0.1,0.1,0.2,0.1c0.1,0.1,0.3,0,0.4-0.1
	C46,23,45.9,22.8,45.7,22.7"/>
<path class="st2" d="M46.5,22.9c-0.1,0-0.1,0-0.2,0c-0.1,0-0.2,0.2-0.1,0.2c0,0.1,0.1,0.1,0.2,0.1c0.1,0,0.2,0,0.2-0.1
	C46.6,23.1,46.6,22.9,46.5,22.9"/>
<path class="st2" d="M45.9,23.4C45.9,23.4,45.9,23.4,45.9,23.4C45.9,23.4,45.9,23.4,45.9,23.4c-0.2,0-0.4,0-0.5,0.1
	c-0.1,0.1-0.1,0.2,0,0.3c0,0.1,0.1,0.1,0.2,0.1c0.1,0,0.3,0,0.4-0.1C46.2,23.7,46.1,23.5,45.9,23.4"/>
<path class="st2" d="M46.5,23.5c-0.3,0-0.3,0.4,0,0.4C46.7,23.9,46.7,23.5,46.5,23.5"/>
<path class="st2" d="M38,22.1C38,22.1,38,22.1,38,22.1c0-0.1-0.1-0.1-0.2-0.1c-0.1,0-0.3,0-0.4,0.1c-0.1,0.1-0.1,0.3,0,0.3
	c0.2,0.1,0.4,0.1,0.5,0C38.1,22.3,38.1,22.2,38,22.1"/>
<path class="st2" d="M38.7,21.9c-0.1,0-0.2,0-0.3,0c-0.1,0-0.2,0.1-0.2,0.2c0,0,0,0,0,0.1c0,0.1,0,0.1,0.1,0.2
	c0.1,0.1,0.1,0.1,0.2,0.1c0.1,0,0.3,0,0.4-0.1C38.9,22.1,38.9,21.9,38.7,21.9"/>
<path class="st2" d="M39.7,22.1c0-0.3-0.4-0.3-0.6-0.2c-0.1,0-0.1,0.1-0.1,0.2c0,0.1,0,0.2,0.1,0.2c0.1,0,0.2,0,0.3,0
	C39.6,22.3,39.7,22.2,39.7,22.1"/>
<path class="st2" d="M40.5,21.9c-0.1-0.1-0.3-0.1-0.5,0c-0.2,0.1-0.2,0.4,0,0.4c0,0,0.1,0,0.1,0c0.1,0,0.2,0,0.3,0
	c0.1,0,0.2-0.1,0.2-0.2C40.6,22,40.6,22,40.5,21.9"/>
<path class="st2" d="M41.5,21.8c-0.2-0.1-0.3-0.1-0.5,0c-0.1,0-0.2,0.1-0.1,0.2c0,0.1,0.1,0.1,0.1,0.1c0,0,0.1,0,0.1,0
	c0.2,0,0.4,0,0.5-0.2C41.6,22,41.6,21.9,41.5,21.8"/>
<path class="st2" d="M42.3,21.8c-0.1,0-0.2,0-0.2,0c-0.1,0-0.2,0.1-0.2,0.2c0,0,0,0,0,0c0,0.1,0,0.2,0.1,0.2
	c0.2,0.1,0.5,0.1,0.5-0.2C42.5,21.9,42.4,21.8,42.3,21.8"/>
<path class="st2" d="M43.1,21.9c0,0-0.1-0.1-0.1-0.1c0,0,0,0,0,0c-0.1,0-0.1,0-0.2,0c-0.1,0.1-0.1,0.2-0.1,0.3
	c0,0.1,0.2,0.2,0.3,0.1c0.1,0,0.1-0.1,0.1-0.1c0,0,0-0.1,0-0.2C43.1,22,43.1,21.9,43.1,21.9"/>
<path class="st2" d="M43,22.5c0,0-0.1-0.1-0.2-0.1c-0.1,0-0.1,0-0.2,0.1c-0.1,0.1-0.1,0.2-0.1,0.2c0,0.1,0.1,0.2,0.2,0.2
	c0.1,0,0.2,0,0.2-0.1C43.1,22.7,43.1,22.6,43,22.5"/>
<path class="st2" d="M42.5,22.6c-0.1-0.2-0.2-0.2-0.3-0.2c-0.1,0-0.2,0-0.2,0.1c-0.1,0.1-0.1,0.1-0.1,0.2c0,0.1,0,0.1,0.1,0.2
	C42,22.9,42,23,42.1,23c0.1,0,0.3,0,0.4-0.2C42.5,22.8,42.5,22.7,42.5,22.6C42.5,22.7,42.5,22.6,42.5,22.6"/>
<path class="st2" d="M41.4,22.4C41.4,22.4,41.4,22.4,41.4,22.4C41.4,22.4,41.4,22.4,41.4,22.4c-0.3,0-0.5,0-0.5,0.2
	C40.8,22.8,41,23,41.2,23c0.2,0,0.4,0,0.4-0.2C41.8,22.6,41.6,22.4,41.4,22.4"/>
<path class="st2" d="M40.7,22.7c0-0.1-0.1-0.2-0.1-0.2c-0.2-0.1-0.7-0.1-0.8,0.2c0,0.4,0.5,0.3,0.7,0.3
	C40.7,22.9,40.8,22.9,40.7,22.7C40.8,22.7,40.8,22.7,40.7,22.7"/>
<polyline class="st2" points="39.4,22.6 39.4,22.6 39.4,22.6 39.4,22.6 39.4,22.6 "/>
<path class="st2" d="M39.6,22.5c-0.1,0-0.2,0-0.3,0c-0.1,0-0.2,0.2-0.2,0.3c0,0.1,0.2,0.2,0.3,0.2c0.1,0,0.2,0,0.3-0.1
	c0,0,0.1-0.1,0.1-0.1c0,0,0,0,0,0C39.7,22.6,39.7,22.5,39.6,22.5"/>
<path class="st2" d="M38.8,22.6c-0.2-0.1-0.5-0.2-0.6,0.1c0,0.1,0.1,0.3,0.2,0.3c0.1,0,0.2,0,0.3,0c0.1,0,0.1-0.1,0.1-0.1
	c0,0,0,0,0,0C38.9,22.8,38.9,22.7,38.8,22.6"/>
<path class="st2" d="M38.1,22.8C38.1,22.8,38.1,22.7,38.1,22.8c0-0.1-0.1-0.2-0.2-0.2c-0.1,0-0.2,0-0.4,0c-0.1,0.1-0.2,0.3-0.1,0.4
	c0.1,0.1,0.2,0.1,0.3,0.1c0.1,0,0.1,0,0.2-0.1C38.1,23,38.1,22.9,38.1,22.8"/>
</svg>
